<svg width="128" height="128" viewBox="0 0 30 30" fill="none" xmlns="http://www.w3.org/2000/svg">
  <path d="M0 9C0 5.8497 0 4.27456 0.613088 3.0713C1.15238 2.01289 2.01289 1.15238 3.0713 0.613088C4.27456 0 5.8497 0 9 0H21C24.1503 0 25.7254 0 26.9287 0.613088C27.9871 1.15238 28.8476 2.01289 29.3869 3.0713C30 4.27456 30 5.8497 30 9V21C30 24.1503 30 25.7254 29.3869 26.9287C28.8476 27.9871 27.9871 28.8476 26.9287 29.3869C25.7254 30 24.1503 30 21 30H9C5.8497 30 4.27456 30 3.0713 29.3869C2.01289 28.8476 1.15238 27.9871 0.613088 26.9287C0 25.7254 0 24.1503 0 21V9Z" fill="#D3FB52" />
  <path d="M18.1066 6L16.9001 12.8625L13.3562 15.7591L15.0711 6H11.6359L8.4585 24H11.8937L12.776 19.0201L16.3328 16.1014L14.9292 24H18.3663L21.5418 6H18.1066Z" fill="#052326" />
</svg>
